<svg id="Layer_1" data-name="Layer 1" xmlns="http://www.w3.org/2000/svg" width="332.9" height="53.6" viewBox="0 0 332.9 53.6"><defs><style>.cls-1{fill:#2774ae;}.cls-2{fill:#fff;}</style></defs><title>dept-signature-color</title><path d="M89.3,18h4.4l2.2,7.7c.5,1.9,1,4.1,1,4.1h0s.4-2.2.9-4.1L100,18h4.4V33.3h-2.9V24.5c0-1.2.1-3.2.1-3.2h0a20.78,20.78,0,0,1-.7,2.9l-2.6,9h-3l-2.6-9c-.3-1.1-.7-2.9-.7-2.9h0s.1,1.9.1,3.2v8.8H89.3Z"/><path d="M106.5,18h2.9v2.6h-2.9Zm0,4.3h2.9V33.2h-2.9Z"/><path d="M110.7,27.8c0-3.3,2.1-5.8,5.5-5.8a4.68,4.68,0,0,1,5,4h-2.8a2,2,0,0,0-2-1.7c-1.8,0-2.6,1.3-2.6,3.5s.8,3.5,2.6,3.5a2,2,0,0,0,2.2-1.9h2.8a4.61,4.61,0,0,1-4.9,4.2A5.56,5.56,0,0,1,110.7,27.8Z"/><path d="M125.3,24h0a3.12,3.12,0,0,1,2.8-1.9,1.48,1.48,0,0,1,.7.1v2.5h-.1c-1.9-.2-3.3.8-3.3,3.1v5.3h-2.9V22.3h2.8Z"/><path d="M129.2,27.8a5.7,5.7,0,1,1,11.4,0,5.54,5.54,0,0,1-5.7,5.8A5.6,5.6,0,0,1,129.2,27.8Zm8.5,0c0-2.1-1-3.6-2.8-3.6s-2.8,1.5-2.8,3.6,1,3.6,2.8,3.6S137.7,29.9,137.7,27.8Z"/><path d="M144.8,31.9h0v1.4H142V18h2.9v5.6h.1a3.43,3.43,0,0,1,3.1-1.6c2.8,0,4.7,2.4,4.7,5.8s-1.9,5.8-4.6,5.8A3.94,3.94,0,0,1,144.8,31.9Zm5-4.1c0-2-.8-3.4-2.4-3.4-1.8,0-2.5,1.5-2.5,3.5s1,3.3,2.6,3.3S149.8,29.9,149.8,27.8Z"/><path d="M154.1,18H157v2.6h-2.9Zm0,4.3H157V33.2h-2.9Z"/><path d="M158.3,27.8a5.7,5.7,0,1,1,11.4,0,5.54,5.54,0,0,1-5.7,5.8A5.66,5.66,0,0,1,158.3,27.8Zm8.5,0c0-2.1-1-3.6-2.8-3.6s-2.8,1.5-2.8,3.6,1,3.6,2.8,3.6S166.8,29.9,166.8,27.8Z"/><path d="M171.2,18h2.9V33.3h-2.9Z"/><path d="M175.4,27.8a5.7,5.7,0,1,1,11.4,0,5.54,5.54,0,0,1-5.7,5.8A5.6,5.6,0,0,1,175.4,27.8Zm8.5,0c0-2.1-1-3.6-2.8-3.6s-2.8,1.5-2.8,3.6,1,3.6,2.8,3.6S183.9,29.9,183.9,27.8Z"/><path d="M187.8,33.6h2.9c.2.7.9,1.2,2.2,1.2a2.09,2.09,0,0,0,2.4-2.3V31.3h-.1a3.63,3.63,0,0,1-2.9,1.3,4.9,4.9,0,0,1-4.8-5.2c0-3.3,2-5.4,4.7-5.4a3.22,3.22,0,0,1,3,1.5h0V22.3H198V32.4a4.2,4.2,0,0,1-1.3,3.3,5.38,5.38,0,0,1-3.9,1.2C190,37,188.1,35.7,187.8,33.6Zm7.7-6.3c0-1.6-.9-3-2.6-3-1.5,0-2.5,1.2-2.5,3s1,2.9,2.5,2.9C194.8,30.2,195.5,28.9,195.5,27.3Z"/><path d="M200.2,34.5h1c1.2,0,1.6-.6,1.6-1.5a10,10,0,0,0-.8-3l-2.9-7.8h3.1l1.6,4.9c.3,1,.7,2.4.7,2.4h0s.3-1.4.6-2.4l1.5-4.9h2.9l-3.8,11.2c-.8,2.4-1.6,3.3-3.9,3.3h-1.7V34.5Z"/><path d="M209.5,35.7a2.66,2.66,0,0,0,1.5-2.5h-1.6V30.1h3.1V33a3.62,3.62,0,0,1-3.1,3.7v-1Z"/><path d="M218.1,18h3.1V33.3h-3.1Z"/><path d="M223.3,22.3h2.8v1.5h.1a3.66,3.66,0,0,1,3.2-1.8,3.24,3.24,0,0,1,3,1.9h0a3.74,3.74,0,0,1,3.3-1.9c2.3,0,3.6,1.5,3.6,3.9v7.4h-2.9V26.4c0-1.2-.6-1.9-1.7-1.9s-2,.9-2,2.4v6.4h-2.9V26.4c0-1.2-.6-1.9-1.7-1.9s-2,.9-2,2.4v6.4h-2.9v-11Z"/><path d="M241.2,22.3H244v1.5h.1a3.66,3.66,0,0,1,3.2-1.8,3.24,3.24,0,0,1,3,1.9h0a3.74,3.74,0,0,1,3.3-1.9c2.3,0,3.6,1.5,3.6,3.9v7.4h-2.9V26.4c0-1.2-.6-1.9-1.7-1.9s-2,.9-2,2.4v6.4h-2.9V26.4c0-1.2-.6-1.9-1.7-1.9s-2,.9-2,2.4v6.4h-2.9v-11Z"/><path d="M265.9,33.2V32h-.1a3.46,3.46,0,0,1-3.1,1.6,3.6,3.6,0,0,1-3.8-3.9V22.4h2.9v6.8c0,1.3.6,2,1.8,2,1.4,0,2.2-1,2.2-2.5V22.4h2.9V33.3h-2.8Z"/><path d="M273.4,23.8h0a3.65,3.65,0,0,1,3.3-1.8c2.3,0,3.8,1.7,3.8,4.1v7.2h-2.9V26.6a1.81,1.81,0,0,0-1.9-2,2.24,2.24,0,0,0-2.2,2.5v6.2h-2.9v-11h2.8v1.5Z"/><path d="M281.7,27.8a5.7,5.7,0,1,1,11.4,0,5.54,5.54,0,0,1-5.7,5.8A5.66,5.66,0,0,1,281.7,27.8Zm8.5,0c0-2.1-1-3.6-2.8-3.6s-2.8,1.5-2.8,3.6,1,3.6,2.8,3.6S290.2,29.9,290.2,27.8Z"/><path d="M294.6,18h2.9V33.3h-2.9Z"/><path d="M298.8,27.8a5.7,5.7,0,1,1,11.4,0,5.54,5.54,0,0,1-5.7,5.8A5.6,5.6,0,0,1,298.8,27.8Zm8.5,0c0-2.1-1-3.6-2.8-3.6s-2.8,1.5-2.8,3.6,1,3.6,2.8,3.6S307.3,29.9,307.3,27.8Z"/><path d="M311.2,33.6h2.9c.2.7.9,1.2,2.2,1.2a2.09,2.09,0,0,0,2.4-2.3V31.3h-.1a3.63,3.63,0,0,1-2.9,1.3,4.9,4.9,0,0,1-4.8-5.2c0-3.3,2-5.4,4.7-5.4a3.22,3.22,0,0,1,3,1.5h0V22.3h2.8V32.4a4.2,4.2,0,0,1-1.3,3.3,5.38,5.38,0,0,1-3.9,1.2C313.4,37,311.5,35.7,311.2,33.6Zm7.7-6.3c0-1.6-.9-3-2.6-3-1.5,0-2.5,1.2-2.5,3s1,2.9,2.5,2.9C318.2,30.2,318.9,28.9,318.9,27.3Z"/><path d="M323.6,34.5h1c1.2,0,1.6-.6,1.6-1.5a10,10,0,0,0-.8-3l-2.9-7.8h3.1l1.6,4.9c.3,1,.7,2.4.7,2.4h0s.3-1.4.6-2.4l1.5-4.9h2.9l-3.8,11.2c-.8,2.4-1.6,3.3-3.9,3.3h-1.7V34.5Z"/><path d="M88.5,49.3c0-2.2,1.4-3.5,3.4-4.5a4.54,4.54,0,0,1-1.3-3.2,3.59,3.59,0,0,1,3.9-3.5c2.3,0,4,1.4,4,3.5,0,1.9-1.1,2.8-2.7,3.7l2,2.6a10.15,10.15,0,0,0,.6-2.5H101a9.34,9.34,0,0,1-1.5,4.7l2.4,3.1H98.4l-.8-1a6.91,6.91,0,0,1-4.1,1.3C90.3,53.6,88.5,51.7,88.5,49.3Zm7.7,1-2.8-3.7c-1.3.8-1.8,1.6-1.8,2.6a1.89,1.89,0,0,0,2.1,1.9A3.29,3.29,0,0,0,96.2,50.3Zm-1.7-6.7a2.25,2.25,0,0,0,1.3-2,1.22,1.22,0,0,0-1.2-1.2,1.16,1.16,0,0,0-1.2,1.2A3.12,3.12,0,0,0,94.5,43.6Z"/><path d="M106.9,38h4.4l2.2,7.7c.5,1.9,1,4.1,1,4.1h0s.4-2.2.9-4.1l2.2-7.7H122V53.3h-3V44.5c0-1.2.1-3.2.1-3.2h0a20.78,20.78,0,0,1-.7,2.9l-2.6,9h-3l-2.6-9c-.3-1.1-.7-2.9-.7-2.9h0s.1,1.9.1,3.2v8.8h-2.8V38Z"/><path d="M123.5,47.8a5.7,5.7,0,1,1,11.4,0,5.54,5.54,0,0,1-5.7,5.8A5.6,5.6,0,0,1,123.5,47.8Zm8.5,0c0-2.1-1-3.6-2.8-3.6s-2.8,1.5-2.8,3.6,1,3.6,2.8,3.6S132,49.9,132,47.8Z"/><path d="M136.3,38h2.9V53.3h-2.9Z"/><path d="M140.6,47.8c0-3.2,2.2-5.8,5.4-5.8,3.5,0,5.4,2.7,5.4,6.6h-7.9a2.71,2.71,0,0,0,2.8,2.7,2,2,0,0,0,2.1-1.3h2.9c-.4,1.9-2.1,3.6-5,3.6A5.48,5.48,0,0,1,140.6,47.8Zm2.9-1.2h4.9a2.26,2.26,0,0,0-2.3-2.3C144.5,44.2,143.8,45.2,143.5,46.6Z"/><path d="M152.2,47.8c0-3.3,2.1-5.8,5.5-5.8a4.68,4.68,0,0,1,5,4h-2.8a2,2,0,0,0-2-1.7c-1.8,0-2.6,1.3-2.6,3.5s.8,3.5,2.6,3.5a2,2,0,0,0,2.2-1.9h2.8a4.61,4.61,0,0,1-4.9,4.2A5.46,5.46,0,0,1,152.2,47.8Z"/><path d="M170.9,53.3V52h-.1a3.46,3.46,0,0,1-3.1,1.6,3.6,3.6,0,0,1-3.8-3.9V42.4h2.9v6.8c0,1.3.6,2,1.8,2,1.4,0,2.2-1,2.2-2.5V42.4h2.9V53.3Z"/><path d="M175.6,38h2.9V53.3h-2.9Z"/><path d="M186.9,52h0a3.6,3.6,0,0,1-3.3,1.5c-2.2,0-3.8-1.2-3.8-3.4,0-2.4,2-3.2,4.4-3.5,1.8-.3,2.6-.4,2.6-1.2s-.6-1.3-1.8-1.3c-1.4,0-2,.5-2.1,1.5h-2.6c.1-1.9,1.5-3.6,4.7-3.6s4.6,1.5,4.6,4v5.6c0,.8.1,1.3.4,1.5v.1h-2.8A6.81,6.81,0,0,1,186.9,52Zm0-2.6V47.8a5.87,5.87,0,0,1-2,.6c-1.5.3-2.3.7-2.3,1.7s.7,1.4,1.7,1.4C186,51.5,186.9,50.5,186.9,49.4Z"/><path d="M194.3,44.1h0a3.12,3.12,0,0,1,2.8-1.9,1.48,1.48,0,0,1,.7.1v2.5h-.1c-1.9-.2-3.3.8-3.3,3.1v5.3h-2.9V42.3h2.8Z"/><path d="M202.1,48.5h3c.2,1.8,1.3,2.6,3.4,2.6,1.6,0,3-.6,3-2s-1.5-1.8-3.8-2.3c-2.7-.6-5.2-1.3-5.2-4.5,0-3,2.5-4.6,5.8-4.6s5.7,1.7,5.9,4.8h-3a2.67,2.67,0,0,0-2.9-2.3c-1.7,0-2.8.7-2.8,1.8s1.1,1.6,3.3,2.1c3.1.7,5.7,1.4,5.7,4.7,0,3.1-2.5,4.8-5.9,4.8C204.6,53.6,202.2,51.8,202.1,48.5Z"/><path d="M215.7,47.8c0-3.3,2.1-5.8,5.5-5.8a4.68,4.68,0,0,1,5,4h-2.8a2,2,0,0,0-2-1.7c-1.8,0-2.6,1.3-2.6,3.5s.8,3.5,2.6,3.5a2,2,0,0,0,2.2-1.9h2.8a4.61,4.61,0,0,1-4.9,4.2A5.46,5.46,0,0,1,215.7,47.8Z"/><path d="M227.5,38h2.9v2.6h-2.9Zm0,4.3h2.9V53.2h-2.9Z"/><path d="M231.7,47.8c0-3.2,2.2-5.8,5.4-5.8,3.5,0,5.4,2.7,5.4,6.6h-7.9a2.71,2.71,0,0,0,2.8,2.7,2,2,0,0,0,2.1-1.3h2.9c-.4,1.9-2.1,3.6-5,3.6A5.48,5.48,0,0,1,231.7,47.8Zm2.9-1.2h4.9a2.26,2.26,0,0,0-2.3-2.3C235.6,44.2,234.9,45.2,234.6,46.6Z"/><path d="M246.7,43.8h0A3.65,3.65,0,0,1,250,42c2.3,0,3.8,1.7,3.8,4.1v7.2h-2.9V46.6a1.81,1.81,0,0,0-1.9-2,2.24,2.24,0,0,0-2.2,2.5v6.2h-2.9v-11h2.8v1.5Z"/><path d="M255,47.8c0-3.3,2.1-5.8,5.5-5.8a4.68,4.68,0,0,1,5,4h-2.8a2,2,0,0,0-2-1.7c-1.8,0-2.6,1.3-2.6,3.5s.8,3.5,2.6,3.5a2,2,0,0,0,2.2-1.9h2.8a4.61,4.61,0,0,1-4.9,4.2A5.51,5.51,0,0,1,255,47.8Z"/><path d="M266.3,47.8c0-3.2,2.2-5.8,5.4-5.8,3.5,0,5.4,2.7,5.4,6.6h-7.9a2.71,2.71,0,0,0,2.8,2.7,2,2,0,0,0,2.1-1.3H277c-.4,1.9-2.1,3.6-5,3.6C268.3,53.6,266.3,51,266.3,47.8Zm2.9-1.2h4.9a2.26,2.26,0,0,0-2.3-2.3A2.34,2.34,0,0,0,269.2,46.6Z"/><rect class="cls-1" width="81" height="38"/><path class="cls-2" d="M13,22.6a12,12,0,0,1,0-1.9l.9-10.4h3.4l-.9,10.4c-.2,2.3.7,3.9,2.9,3.9S22.8,23,23,21l1-10.7h3.4l-.9,10.5C26,25,23.3,28,18.9,28A5.75,5.75,0,0,1,13,22.6"/><path class="cls-2" d="M28.1,19.1c.4-5,3.8-9.1,9.6-9.1a7.78,7.78,0,0,1,4.5,1.3l-.4,4.1a4.82,4.82,0,0,0-4.4-2c-3.6,0-5.6,2.5-5.9,5.7s1.3,5.6,4.8,5.6a6.38,6.38,0,0,0,4.8-2.1l-.4,4.2A9.56,9.56,0,0,1,36,28.1c-5.7,0-8.3-4.3-7.9-9"/><path class="cls-2" d="M44.8,10.4h3.4L47,24.4h6.6c0,.2-.3,3.2-.3,3.2h-10Z"/><path class="cls-2" d="M62.4,16.8c.1-.2.2-.5.3-.7h.1c0,.2.1.5.1.7.2.8,1.5,5.2,1.5,5.2H60.1s2.3-5.1,2.3-5.2m.9-7.2h-.2L53.8,27.7h3.6L58.7,25h6.5l.8,2.7h3.6Z"/><path d="M88.9,4.8H92c2.6,0,3.8,1.7,3.8,4.3s-1.3,4.2-3.8,4.2H89V4.8Zm3,7.5c2,0,2.8-1.3,2.8-3.3S94,5.6,92,5.6H90v6.6h1.9Z"/><path d="M100.8,12.4h0a2.5,2.5,0,0,1-2.1,1c-1.2,0-2.1-.5-2.1-1.7,0-1.4,1.1-1.7,2.7-2,.9-.1,1.5-.2,1.5-.9s-.5-1.1-1.4-1.1-1.5.4-1.5,1.4H97c0-1.2.8-2.1,2.4-2.1,1.3,0,2.3.5,2.3,1.9v2.9c0,.5.1.8.7.7h0v.7a4.33,4.33,0,0,1-.5.1A1,1,0,0,1,100.8,12.4Zm0-1.4V10a4.57,4.57,0,0,1-1.4.5c-1,.2-1.7.3-1.7,1.2s.6,1,1.3,1A1.83,1.83,0,0,0,100.8,11Z"/><path d="M102.3,7.1h1l1.3,3.9a12.76,12.76,0,0,1,.4,1.3h0a12.76,12.76,0,0,1,.4-1.3l1.3-3.9h1l-2.2,6.1h-1.1Z"/><path d="M108.5,4.8h1V6h-1Zm0,2.3h1v6.1h-1Z"/><path d="M110.5,10.2c0-2,1.2-3.2,2.7-3.2a2.15,2.15,0,0,1,1.9,1h0V4.8h1v8.5h-1v-.7h0a2.2,2.2,0,0,1-1.9.9C111.5,13.4,110.5,12.2,110.5,10.2Zm4.7,0c0-1.4-.7-2.4-2-2.4s-1.8,1-1.8,2.4.6,2.4,1.8,2.4C114.6,12.6,115.2,11.6,115.2,10.2Z"/><path d="M125.8,12.1h0a3.1,3.1,0,0,1-2.7,1.3c-2.4,0-4-1.8-4-4.4s1.4-4.5,4.1-4.5a3.25,3.25,0,0,1,3.5,2.7h-1.1a2.17,2.17,0,0,0-2.4-1.8c-2,0-3,1.5-3,3.5s1.2,3.5,2.9,3.5a2.46,2.46,0,0,0,2.6-2.6V9.7h-2.6V8.8h3.6v4.5H126Z"/><path d="M128,10.2A3,3,0,0,1,130.9,7c1.8,0,2.8,1.4,2.8,3.5h-4.8c.1,1.2.7,2.2,2,2.2a1.55,1.55,0,0,0,1.7-1.3h.9a2.51,2.51,0,0,1-2.6,2.1A3,3,0,0,1,128,10.2Zm1-.5h3.7c-.1-1.2-.7-2-1.8-2A1.92,1.92,0,0,0,129,9.7Z"/><path d="M134.2,7.1h.8V6.2c0-1.1.6-1.4,1.6-1.4h.5v.8h-.3c-.6,0-.8.2-.8.7v.9h2v-1c0-1.1.6-1.4,1.6-1.4h.5v.8h-.3c-.6,0-.8.2-.8.7v.9h1.1V8H139v5.4h-1V7.9h-2v5.4h-1V7.9h-.8Z"/><path d="M140.6,10.2A3,3,0,0,1,143.5,7c1.8,0,2.8,1.4,2.8,3.5h-4.8c.1,1.2.7,2.2,2,2.2a1.55,1.55,0,0,0,1.7-1.3h.9a2.51,2.51,0,0,1-2.6,2.1A3.06,3.06,0,0,1,140.6,10.2Zm1-.5h3.7c-.1-1.2-.7-2-1.8-2A1.92,1.92,0,0,0,141.6,9.7Z"/><path d="M148.3,7.9h0a2.46,2.46,0,0,1,2-1,1.87,1.87,0,0,1,2.1,2v4.3h-1V9c0-.8-.5-1.2-1.4-1.2a1.63,1.63,0,0,0-1.7,1.7v3.8h-1V7.1h1v.8Z"/></svg>
