<svg id="Layer_1" data-name="Layer 1" xmlns="http://www.w3.org/2000/svg" width="333" height="50.4" viewBox="0 0 333 50.4"><defs><style>.cls-1{fill:#fff;}</style></defs><title>dept-signature-white</title><path class="cls-1" d="M83.6.2h3.2c2.6,0,3.8,1.8,3.8,4.4s-1.3,4.3-3.9,4.3H83.6Zm3.1,7.7c2,0,2.9-1.3,2.9-3.4s-.7-3.4-2.8-3.4h-2V7.9Z" transform="translate(0 0.1)"/><path class="cls-1" d="M95.7,8h0a2.5,2.5,0,0,1-2.1,1c-1.2,0-2.1-.6-2.1-1.7,0-1.5,1.2-1.8,2.7-2,.9-.1,1.5-.2,1.5-.9s-.5-1.1-1.4-1.1a1.37,1.37,0,0,0-1.6,1.4h-.9c0-1.2.8-2.1,2.5-2.1,1.3,0,2.3.5,2.3,2v3c0,.5.1.8.7.7h0V9a4.33,4.33,0,0,1-.5.1A1.39,1.39,0,0,1,95.7,8Zm0-1.5v-1a4.57,4.57,0,0,1-1.4.5c-1,.2-1.8.4-1.8,1.3s.7,1,1.3,1A1.87,1.87,0,0,0,95.7,6.5Z" transform="translate(0 0.1)"/><path class="cls-1" d="M97.3,2.6h1.1l1.3,4c.2.6.4,1.3.4,1.3h0a12.76,12.76,0,0,1,.4-1.3l1.3-4h1l-2.3,6.3H99.4Z" transform="translate(0 0.1)"/><path class="cls-1" d="M103.6.2h1V1.4h-1Zm0,2.4h1V8.9h-1Z" transform="translate(0 0.1)"/><path class="cls-1" d="M105.7,5.7c0-2.1,1.2-3.3,2.8-3.3a2.33,2.33,0,0,1,2,1h0V.2h1V8.9h-1V8.1h0a2.32,2.32,0,0,1-1.9.9C106.7,9,105.7,7.8,105.7,5.7Zm4.8.1c0-1.5-.7-2.5-2-2.5s-1.8,1.1-1.8,2.5.6,2.5,1.8,2.5C109.9,8.2,110.5,7.2,110.5,5.8Z" transform="translate(0 0.1)"/><path class="cls-1" d="M121.3,7.7h0A3.23,3.23,0,0,1,118.6,9c-2.4,0-4.1-1.9-4.1-4.5s1.4-4.6,4.2-4.6a3.18,3.18,0,0,1,3.5,2.8H121A2.15,2.15,0,0,0,118.6.9c-2.1,0-3,1.6-3,3.6s1.2,3.5,3,3.5a2.44,2.44,0,0,0,2.6-2.7V5.2h-2.6V4.3h3.7V8.9h-.7Z" transform="translate(0 0.1)"/><path class="cls-1" d="M123.5,5.7a3.08,3.08,0,0,1,3-3.3c1.9,0,2.9,1.5,2.9,3.5h-4.9c.1,1.3.8,2.2,2,2.2a1.55,1.55,0,0,0,1.7-1.3h1A2.47,2.47,0,0,1,126.5,9,3,3,0,0,1,123.5,5.7Zm1-.5h3.8c-.1-1.2-.7-2-1.8-2S124.7,4.1,124.5,5.2Z" transform="translate(0 0.1)"/><path class="cls-1" d="M129.9,2.6h.9V1.7c0-1.1.6-1.5,1.7-1.5h.5V1h-.3c-.6,0-.8.2-.8.7v.9h2v-1c0-1.1.6-1.5,1.7-1.5h.5V1h-.3c-.6,0-.9.2-.9.7v1h1.2v.8h-1.2V9h-1V3.4h-2V8.9h-1V3.4H130V2.6Z" transform="translate(0 0.1)"/><path class="cls-1" d="M136.4,5.7a3.08,3.08,0,0,1,3-3.3c1.9,0,2.9,1.5,2.9,3.5h-4.9c.1,1.3.8,2.2,2,2.2a1.55,1.55,0,0,0,1.7-1.3h1a2.61,2.61,0,0,1-2.7,2.1C137.5,9,136.4,7.5,136.4,5.7Zm1-.5h3.8c-.1-1.2-.7-2-1.8-2S137.6,4.1,137.4,5.2Z" transform="translate(0 0.1)"/><path class="cls-1" d="M144.3,3.4h0a2.46,2.46,0,0,1,2-1,1.87,1.87,0,0,1,2.1,2V8.8h-1V4.5A1.24,1.24,0,0,0,146,3.2a1.63,1.63,0,0,0-1.7,1.7V8.8h-1V2.6h1v.8Z" transform="translate(0 0.1)"/><path class="cls-1" d="M84,13.7h4.4l2.2,7.8c.5,2,1,4.2,1,4.2h0s.4-2.2,1-4.2l2.2-7.8h4.5V29.3H96.4V20.4c0-1.3.1-3.2.1-3.2h0a24.55,24.55,0,0,1-.7,3l-2.7,9.2h-3l-2.6-9.2c-.3-1.1-.7-3-.7-3h0s.1,2,.1,3.2v8.9H84Z" transform="translate(0 0.1)"/><path class="cls-1" d="M101.6,13.7h3v2.7h-3Zm0,4.4h3V29.3h-3Z" transform="translate(0 0.1)"/><path class="cls-1" d="M105.9,23.7c0-3.3,2.2-5.9,5.6-5.9a4.79,4.79,0,0,1,5.1,4.1h-2.9a2,2,0,0,0-2-1.7c-1.8,0-2.7,1.4-2.7,3.5s.9,3.5,2.7,3.5a2,2,0,0,0,2.2-1.9h2.9a4.65,4.65,0,0,1-5,4.3A5.56,5.56,0,0,1,105.9,23.7Z" transform="translate(0 0.1)"/><path class="cls-1" d="M120.8,19.9h0a3,3,0,0,1,2.8-1.9,1.48,1.48,0,0,1,.7.1v2.6h-.1c-1.9-.2-3.3.8-3.3,3.2v5.5h-3V18.1h2.9Z" transform="translate(0 0.1)"/><path class="cls-1" d="M124.8,23.7a5.7,5.7,0,0,1,5.8-5.9,5.65,5.65,0,0,1,5.8,5.9,5.7,5.7,0,0,1-5.8,5.9A5.65,5.65,0,0,1,124.8,23.7Zm8.7,0c0-2.2-1-3.7-2.8-3.7s-2.8,1.5-2.8,3.7,1,3.6,2.8,3.6S133.5,25.9,133.5,23.7Z" transform="translate(0 0.1)"/><path class="cls-1" d="M140.8,27.9h0v1.4h-2.9V13.7h3v5.8h.1a3.62,3.62,0,0,1,3.1-1.7c2.8,0,4.8,2.4,4.8,5.9s-1.9,5.9-4.7,5.9A3.51,3.51,0,0,1,140.8,27.9Zm5-4.2c0-2.1-.8-3.5-2.5-3.5-1.9,0-2.6,1.5-2.6,3.6s1,3.4,2.7,3.4S145.8,25.9,145.8,23.7Z" transform="translate(0 0.1)"/><path class="cls-1" d="M150.2,13.7h3v2.7h-3Zm0,4.4h3V29.3h-3Z" transform="translate(0 0.1)"/><path class="cls-1" d="M154.5,23.7a5.7,5.7,0,0,1,5.8-5.9,5.65,5.65,0,0,1,5.8,5.9,5.7,5.7,0,0,1-5.8,5.9A5.65,5.65,0,0,1,154.5,23.7Zm8.7,0c0-2.2-1-3.7-2.8-3.7s-2.8,1.5-2.8,3.7,1,3.6,2.8,3.6S163.2,25.9,163.2,23.7Z" transform="translate(0 0.1)"/><path class="cls-1" d="M167.7,13.7h3V29.3h-3Z" transform="translate(0 0.1)"/><path class="cls-1" d="M172,23.7a5.7,5.7,0,0,1,5.8-5.9,5.65,5.65,0,0,1,5.8,5.9,5.7,5.7,0,0,1-5.8,5.9A5.59,5.59,0,0,1,172,23.7Zm8.7,0c0-2.2-1-3.7-2.8-3.7s-2.8,1.5-2.8,3.7,1,3.6,2.8,3.6S180.7,25.9,180.7,23.7Z" transform="translate(0 0.1)"/><path class="cls-1" d="M184.7,29.6h2.9c.2.7.9,1.2,2.2,1.2,1.7,0,2.5-.8,2.5-2.3V27.3h-.1a3.79,3.79,0,0,1-2.9,1.3,5,5,0,0,1-4.9-5.3c0-3.3,2-5.5,4.8-5.5a3.5,3.5,0,0,1,3.1,1.5h0V18.1h2.9V28.4a4.43,4.43,0,0,1-1.3,3.4,5.68,5.68,0,0,1-4,1.3C186.9,33.1,185,31.8,184.7,29.6Zm7.8-6.4a2.71,2.71,0,0,0-2.7-3c-1.5,0-2.5,1.2-2.5,3.1s1,3,2.5,3C191.8,26.2,192.5,24.9,192.5,23.2Z" transform="translate(0 0.1)"/><path class="cls-1" d="M197.3,30.6h1c1.2,0,1.7-.6,1.7-1.5a8.47,8.47,0,0,0-.9-3l-3-8h3.1l1.7,5c.3,1,.7,2.4.7,2.4h0a18,18,0,0,1,.7-2.4l1.6-5h3L203,29.6c-.9,2.5-1.7,3.4-3.9,3.4h-1.7V30.6Z" transform="translate(0 0.1)"/><path class="cls-1" d="M206.8,31.9a2.63,2.63,0,0,0,1.6-2.6h-1.6V26.1H210v3a3.73,3.73,0,0,1-3.2,3.8Z" transform="translate(0 0.1)"/><path class="cls-1" d="M215.6,13.7h3.2V29.3h-3.2Z" transform="translate(0 0.1)"/><path class="cls-1" d="M220.9,18.1h2.9v1.5h.1a3.71,3.71,0,0,1,3.3-1.8,3.31,3.31,0,0,1,3.1,2h0a4,4,0,0,1,3.4-2c2.4,0,3.7,1.5,3.7,4v7.5h-3v-7c0-1.3-.6-1.9-1.7-1.9s-2,1-2,2.4v6.5h-3v-7c0-1.3-.6-1.9-1.7-1.9s-2,1-2,2.4v6.5h-3V18.1Z" transform="translate(0 0.1)"/><path class="cls-1" d="M239.2,18.1h2.9v1.5h.1a3.71,3.71,0,0,1,3.3-1.8,3.31,3.31,0,0,1,3.1,2h0a4,4,0,0,1,3.4-2c2.4,0,3.7,1.5,3.7,4v7.5h-3v-7c0-1.3-.6-1.9-1.7-1.9s-2,1-2,2.4v6.5h-3v-7c0-1.3-.6-1.9-1.7-1.9s-2,1-2,2.4v6.5h-3V18.1Z" transform="translate(0 0.1)"/><path class="cls-1" d="M264.5,29.3V28h-.1a3.93,3.93,0,0,1-7.1-2.4V18.1h2.9v7c0,1.3.6,2,1.9,2s2.2-1,2.2-2.5V18.1h3V29.3Z" transform="translate(0 0.1)"/><path class="cls-1" d="M272.1,19.6h0a3.81,3.81,0,0,1,3.4-1.8,3.87,3.87,0,0,1,3.9,4.2v7.3h-3V22.4a1.89,1.89,0,0,0-1.9-2.1,2.35,2.35,0,0,0-2.3,2.6v6.3h-3V18.1h2.9Z" transform="translate(0 0.1)"/><path class="cls-1" d="M280.6,23.7a5.7,5.7,0,0,1,5.8-5.9,5.65,5.65,0,0,1,5.8,5.9,5.7,5.7,0,0,1-5.8,5.9A5.65,5.65,0,0,1,280.6,23.7Zm8.7,0c0-2.2-1-3.7-2.8-3.7s-2.8,1.5-2.8,3.7,1,3.6,2.8,3.6S289.3,25.9,289.3,23.7Z" transform="translate(0 0.1)"/><path class="cls-1" d="M293.7,13.7h3V29.3h-3Z" transform="translate(0 0.1)"/><path class="cls-1" d="M298,23.7a5.7,5.7,0,0,1,5.8-5.9,5.65,5.65,0,0,1,5.8,5.9,5.7,5.7,0,0,1-5.8,5.9A5.65,5.65,0,0,1,298,23.7Zm8.7,0c0-2.2-1-3.7-2.8-3.7s-2.8,1.5-2.8,3.7,1,3.6,2.8,3.6S306.7,25.9,306.7,23.7Z" transform="translate(0 0.1)"/><path class="cls-1" d="M310.8,29.6h2.9c.2.7.9,1.2,2.2,1.2,1.7,0,2.5-.8,2.5-2.3V27.3h-.1a3.79,3.79,0,0,1-2.9,1.3,5,5,0,0,1-4.9-5.3c0-3.3,2-5.5,4.8-5.5a3.5,3.5,0,0,1,3.1,1.5h0V18.1h2.9V28.4a4.43,4.43,0,0,1-1.3,3.4,5.68,5.68,0,0,1-4,1.3C313,33.1,311.1,31.8,310.8,29.6Zm7.8-6.4a2.71,2.71,0,0,0-2.7-3c-1.5,0-2.5,1.2-2.5,3.1s1,3,2.5,3C317.8,26.2,318.6,24.9,318.6,23.2Z" transform="translate(0 0.1)"/><path class="cls-1" d="M323.4,30.6h1c1.2,0,1.7-.6,1.7-1.5a8.47,8.47,0,0,0-.9-3l-3-8h3.1l1.7,5c.3,1,.7,2.4.7,2.4h0a18,18,0,0,1,.7-2.4l1.6-5h3l-3.9,11.5c-.9,2.5-1.7,3.4-3.9,3.4h-1.7V30.6Z" transform="translate(0 0.1)"/><path class="cls-1" d="M83.2,45.7c0-2.2,1.4-3.6,3.4-4.6a4.71,4.71,0,0,1-1.3-3.2,3.69,3.69,0,0,1,4-3.6c2.4,0,4.1,1.4,4.1,3.6,0,1.9-1.1,2.9-2.8,3.8l2.1,2.7a11.36,11.36,0,0,0,.6-2.5H96a10,10,0,0,1-1.5,4.8L97,49.9H93.4l-.8-1a6.77,6.77,0,0,1-4.1,1.4C85,50.1,83.2,48.2,83.2,45.7Zm7.8,1L88.2,43a3.13,3.13,0,0,0-1.8,2.7,2,2,0,0,0,2.2,2A4.29,4.29,0,0,0,91,46.7Zm-1.6-6.8a2.25,2.25,0,0,0,1.3-2,1.15,1.15,0,0,0-1.2-1.2A1.18,1.18,0,0,0,88.3,38C88.2,38.6,88.7,39.3,89.4,39.9Z" transform="translate(0 0.1)"/><path class="cls-1" d="M102,34.2h4.4l2.2,7.8c.5,2,1,4.2,1,4.2h0s.4-2.2,1-4.2l2.2-7.8h4.5V49.8h-2.9V40.9c0-1.3.1-3.2.1-3.2h0a24.55,24.55,0,0,1-.7,3l-2.7,9.2h-3l-2.6-9.2c-.3-1.1-.7-3-.7-3h0s.1,2,.1,3.2v8.9H102Z" transform="translate(0 0.1)"/><path class="cls-1" d="M119,44.2a5.7,5.7,0,0,1,5.8-5.9,5.65,5.65,0,0,1,5.8,5.9,5.8,5.8,0,1,1-11.6,0Zm8.7,0c0-2.2-1-3.7-2.8-3.7s-2.8,1.5-2.8,3.7,1,3.6,2.8,3.6S127.7,46.4,127.7,44.2Z" transform="translate(0 0.1)"/><path class="cls-1" d="M132.1,34.2h3V49.8h-3Z" transform="translate(0 0.1)"/><path class="cls-1" d="M136.4,44.1c0-3.3,2.2-5.9,5.5-5.9,3.6,0,5.5,2.7,5.5,6.7h-8.1a2.82,2.82,0,0,0,2.9,2.8,2.13,2.13,0,0,0,2.2-1.4h2.9c-.4,2-2.2,3.7-5.1,3.7C138.5,50.1,136.4,47.5,136.4,44.1Zm3-1.2h5a2.37,2.37,0,0,0-2.4-2.4C140.4,40.5,139.7,41.5,139.4,42.9Z" transform="translate(0 0.1)"/><path class="cls-1" d="M148.3,44.2c0-3.3,2.2-5.9,5.6-5.9a4.79,4.79,0,0,1,5.1,4.1h-3a2,2,0,0,0-2-1.7c-1.8,0-2.7,1.4-2.7,3.5s.9,3.5,2.7,3.5a2,2,0,0,0,2.2-1.9h2.9a4.65,4.65,0,0,1-5,4.3A5.59,5.59,0,0,1,148.3,44.2Z" transform="translate(0 0.1)"/><path class="cls-1" d="M167.4,49.8V48.5h-.1a3.93,3.93,0,0,1-7.1-2.4V38.6h2.9v7c0,1.3.6,2,1.9,2s2.2-1,2.2-2.5V38.6h3V49.8Z" transform="translate(0 0.1)"/><path class="cls-1" d="M172.2,34.2h3V49.8h-3Z" transform="translate(0 0.1)"/><path class="cls-1" d="M183.8,48.5h0c-.6.9-1.4,1.5-3.3,1.5-2.3,0-3.9-1.2-3.9-3.4,0-2.5,2-3.2,4.5-3.6,1.9-.3,2.7-.4,2.7-1.3s-.6-1.3-1.9-1.3-2.1.5-2.2,1.6H177c.1-2,1.5-3.7,4.8-3.7s4.7,1.5,4.7,4.1v5.7c0,.9.1,1.4.4,1.5v.1H184A3.26,3.26,0,0,1,183.8,48.5Zm0-2.7V44.1a8.58,8.58,0,0,1-2.1.7c-1.5.3-2.3.7-2.3,1.7s.7,1.4,1.7,1.4C182.8,47.9,183.8,46.9,183.8,45.8Z" transform="translate(0 0.1)"/><path class="cls-1" d="M191.3,40.4h0a3,3,0,0,1,2.8-1.9,1.48,1.48,0,0,1,.7.1v2.6h-.1c-1.9-.2-3.3.8-3.3,3.2v5.5h-3V38.6h2.9v1.8Z" transform="translate(0 0.1)"/><path class="cls-1" d="M199.3,44.9h3.1c.2,1.9,1.3,2.6,3.5,2.6,1.6,0,3-.6,3-2s-1.5-1.8-3.9-2.4c-2.8-.6-5.3-1.4-5.3-4.6s2.5-4.7,6-4.7,5.8,1.7,6,4.9h-3a2.71,2.71,0,0,0-3-2.4c-1.7,0-2.8.7-2.8,1.8,0,1.3,1.1,1.6,3.4,2.1,3.2.7,5.8,1.5,5.8,4.8s-2.6,4.9-6.1,4.9C201.8,50.1,199.4,48.2,199.3,44.9Z" transform="translate(0 0.1)"/><path class="cls-1" d="M213.1,44.2c0-3.3,2.2-5.9,5.6-5.9a4.79,4.79,0,0,1,5.1,4.1h-2.9a2,2,0,0,0-2-1.7c-1.8,0-2.7,1.4-2.7,3.5s.9,3.5,2.7,3.5a2,2,0,0,0,2.2-1.9H224a4.65,4.65,0,0,1-5,4.3A5.67,5.67,0,0,1,213.1,44.2Z" transform="translate(0 0.1)"/><path class="cls-1" d="M225.2,34.2h3v2.7h-3Zm0,4.4h3V49.8h-3Z" transform="translate(0 0.1)"/><path class="cls-1" d="M229.5,44.1c0-3.3,2.2-5.9,5.5-5.9,3.6,0,5.5,2.7,5.5,6.7h-8.1a2.82,2.82,0,0,0,2.9,2.8,2.13,2.13,0,0,0,2.2-1.4h2.9c-.4,2-2.2,3.7-5.1,3.7C231.6,50.1,229.5,47.5,229.5,44.1Zm3-1.2h5a2.37,2.37,0,0,0-2.4-2.4C233.5,40.5,232.8,41.5,232.5,42.9Z" transform="translate(0 0.1)"/><path class="cls-1" d="M244.8,40.1h0a3.81,3.81,0,0,1,3.4-1.8,3.87,3.87,0,0,1,3.9,4.2v7.3h-3V42.9a1.89,1.89,0,0,0-1.9-2.1,2.35,2.35,0,0,0-2.3,2.6v6.3h-3V38.6h2.9v1.5Z" transform="translate(0 0.1)"/><path class="cls-1" d="M253.4,44.2c0-3.3,2.2-5.9,5.6-5.9a4.79,4.79,0,0,1,5.1,4.1h-2.9a2,2,0,0,0-2-1.7c-1.8,0-2.7,1.4-2.7,3.5s.9,3.5,2.7,3.5a2,2,0,0,0,2.2-1.9h2.9a4.65,4.65,0,0,1-5,4.3A5.61,5.61,0,0,1,253.4,44.2Z" transform="translate(0 0.1)"/><path class="cls-1" d="M264.8,44.1c0-3.3,2.2-5.9,5.5-5.9,3.6,0,5.5,2.7,5.5,6.7h-8.1a2.82,2.82,0,0,0,2.9,2.8,2.13,2.13,0,0,0,2.2-1.4h2.9c-.4,2-2.2,3.7-5.1,3.7C266.9,50.1,264.8,47.5,264.8,44.1Zm3-1.2h5a2.37,2.37,0,0,0-2.4-2.4C268.8,40.5,268.1,41.5,267.8,42.9Z" transform="translate(0 0.1)"/><path class="cls-1" d="M.1,22.7A23.55,23.55,0,0,1,0,20.2L1.2,6.5H5.7L4.5,20.3c-.3,3,.9,5.1,3.9,5.1a4.82,4.82,0,0,0,4.9-4.8L14.6,6.5H19L17.8,20.4c-.5,5.4-4.1,9.4-9.8,9.4A7.57,7.57,0,0,1,.1,22.7" transform="translate(0 0.1)"/><path class="cls-1" d="M20,18.1c.6-6.6,5-12,12.7-12a11.1,11.1,0,0,1,5.9,1.7l-.5,5.4a6.75,6.75,0,0,0-5.8-2.7c-4.8,0-7.4,3.3-7.7,7.5s1.7,7.4,6.4,7.4a8.82,8.82,0,0,0,6.4-2.8l-.5,5.6a12.64,12.64,0,0,1-6.2,1.7C23,29.8,19.5,24.2,20,18.1" transform="translate(0 0.1)"/><path class="cls-1" d="M42.2,6.5h4.5L45,25.1h8.8c0,.2-.4,4.3-.4,4.3H40.1Z" transform="translate(0 0.1)"/><path class="cls-1" d="M65.4,15a3.81,3.81,0,0,0,.3-1h.1a4.4,4.4,0,0,0,.2,1c.2,1,2,6.8,2,6.8H62.4c-.1,0,2.9-6.6,3-6.8m1.1-9.5h-.3L54,29.3h4.7l1.7-3.6H69l1.1,3.6h4.7Z" transform="translate(0 0.1)"/></svg>
