<svg id="ucla-blue" xmlns="http://www.w3.org/2000/svg" width="119.4" height="56" viewBox="0 0 119.4 56"><defs><style>.cls-1{fill:#2774ae;}.cls-2{fill:#fff;}</style></defs><title>logo_UCLA_blue_boxed</title><rect class="cls-1" width="119.4" height="56"/><path class="cls-2" d="M19.1,33.4a27.15,27.15,0,0,1-.1-2.8l1.3-15.3h5L24,30.7c-.3,3.3,1,5.7,4.3,5.7S33.5,34,33.8,31l1.4-15.7h5L38.8,30.9c-.6,6-4.5,10.5-10.9,10.5-5-.1-8.2-3.3-8.8-8"/><path class="cls-2" d="M41.4,28.2c.7-7.3,5.6-13.4,14.1-13.4a12.05,12.05,0,0,1,6.6,1.9l-.6,6.1a7.39,7.39,0,0,0-6.5-3c-5.3,0-8.2,3.7-8.6,8.4-.4,4.5,1.9,8.2,7.1,8.2a9.88,9.88,0,0,0,7.1-3.1L60,39.5a14.48,14.48,0,0,1-7,1.9c-8.3,0-12.2-6.3-11.6-13.2"/><path class="cls-2" d="M66.1,15.3h5L69.3,36h7.1a24.37,24.37,0,0,0,2.7-.1c0,.2-.5,4.8-.5,4.8H63.8Z"/><path class="cls-2" d="M92.1,24.8a3.58,3.58,0,0,0,.4-1.1h.1a4.25,4.25,0,0,0,.2,1.1c.3,1.2,2.2,7.6,2.2,7.6H88.7c-.1,0,3.3-7.4,3.4-7.6m1.2-10.7H93L79.3,40.7h5.3l1.9-4h9.6l1.2,4h5.3Z"/></svg>
