<svg id="ucla-white" xmlns="http://www.w3.org/2000/svg" width="86" height="28" viewBox="0 0 86 28"><defs><style>.cls-1{fill:#fff;}</style></defs><title>ucla-white</title><path class="cls-1" d="M.1,19.8c-.1-1-.1-2-.1-2.9L1.4,1.2H6.5L5.1,17c-.3,3.4,1,5.9,4.5,5.9s5.3-2.5,5.7-5.5L16.8,1.2h5.1l-1.4,16C19.9,23.3,15.8,28,9.2,28A8.84,8.84,0,0,1,.1,19.8"/><path class="cls-1" d="M23,14.5C23.7,7,28.8.7,37.5.7a11.47,11.47,0,0,1,6.7,2l-.6,6.2a7.49,7.49,0,0,0-6.7-3.1c-5.5,0-8.5,3.8-8.9,8.6s2,8.5,7.3,8.5a9.89,9.89,0,0,0,7.3-3.2L42.2,26A14.3,14.3,0,0,1,35,28c-8.6,0-12.6-6.5-12-13.5"/><path class="cls-1" d="M48.4,1.2h5.1L51.6,22.5H59a23.48,23.48,0,0,0,2.7-.1c0,.3-.5,4.9-.5,4.9H46.1Z"/><path class="cls-1" d="M75.1,11a4.87,4.87,0,0,0,.4-1.1h.1a4.25,4.25,0,0,0,.2,1.1c.3,1.2,2.3,7.8,2.3,7.8H71.6S75,11.1,75.1,11M76.4,0h-.3L62,27.4h5.5l2-4.1h9.9l1.2,4.2H86Z"/></svg>
