<?xml version="1.0" encoding="UTF-8"?>
<svg width="24px" height="24px" viewBox="0 0 24 24" version="1.1" xmlns="http://www.w3.org/2000/svg" xmlns:xlink="http://www.w3.org/1999/xlink">
    <!-- Generator: Sketch 57.1 (83088) - https://sketch.com -->
    <title>Icon/Calendar</title>
    <desc>Created with Sketch.</desc>
    <defs>
        <polygon id="path-1" points="0.00901003512 0.213333333 2.78480815 0.213333333 2.78480815 3.91994667 0.00901003512 3.91994667"></polygon>
        <polygon id="path-3" points="0.145413054 0.213333333 2.94836269 0.213333333 2.94836269 3.91994667 0.145413054 3.91994667"></polygon>
    </defs>
    <g id="Icon/Calendar" stroke="none" stroke-width="1" fill="none" fill-rule="evenodd">
        <g id="Group-11" transform="translate(2.000000, 2.000000)">
            <path d="M18.3591357,17.3342748 C18.3591357,17.9129267 17.8752911,18.3882479 17.2860525,18.3882479 L6.26302069,18.3882479 C5.67399248,18.3882479 5.19014788,17.9129267 5.19014788,17.3342748 L5.19014788,16.7762891 L13.2890754,16.7762891 C14.6987461,16.7762891 16.1082065,15.7016498 16.4658307,14.3168119 L18.3378886,7.45586057 L18.3591357,17.3342748 Z M2.28708028,15.1643302 C2.1187865,15.1643302 1.90841929,15.122998 1.78219896,14.9576689 C1.65597863,14.8130059 1.6349419,14.5856784 1.71908879,14.3168119 L3.86483441,6.42255365 L4.41178918,6.42255365 L16.9496753,6.42255365 L14.9091133,13.9034891 C14.7197828,14.5650122 13.9834976,15.1643302 13.3103225,15.1643302 L2.28708028,15.1643302 Z M17.2860525,2 L16.4027206,2 L16.1502799,2.9093101 C15.9186656,3.73595564 15.1194806,4.35593979 14.2780117,4.35593979 C13.8149934,4.35593979 13.3734326,4.16994455 13.120992,3.81862019 C12.8475146,3.46729584 12.7631573,2.99197465 12.889588,2.5373196 L13.0368451,2 L10.1758509,2 L9.92341028,2.9093101 C9.69200634,3.73595564 8.89261091,4.35593979 8.03010532,4.35593979 C7.56729744,4.35593979 7.146563,4.16994455 6.87308562,3.81862019 C6.59960824,3.46729584 6.51546135,2.99197465 6.64168168,2.5373196 L6.78893873,2 L5.86332298,2 C4.45386262,2 3.04440226,3.0746392 2.68677799,4.45927049 L0.0992612152,13.9034891 C-0.111106002,14.6476768 0.0151143281,15.3916578 0.456885485,15.9289774 C0.87761992,16.466297 1.52975829,16.7762891 2.26604356,16.7762891 L3.54928358,16.7762891 L3.54928358,17.3342748 C3.54928358,18.8015706 4.76941345,20 6.26302069,20 L17.2860525,20 C18.7798701,20 20,18.8015706 20,17.3342748 L20,4.66593187 C20,3.19863603 18.7798701,2 17.2860525,2 L17.2860525,2 Z" id="Fill-1" fill="#666666"></path>
            <g id="Group-5" transform="translate(7.000000, 0.000000)">
                <mask id="mask-2" fill="white">
                    <use xlink:href="#path-1"></use>
                </mask>
                <g id="Clip-4"></g>
                <path d="M0.892363636,3.91994667 C1.54690909,3.91994667 2.20145455,3.41328 2.36509091,2.77328 L2.74690909,1.35994667 C2.91054545,0.719946667 2.52872727,0.21328 1.90145455,0.21328 C1.24690909,0.21328 0.592363636,0.719946667 0.428727273,1.35994667 L0.0469090909,2.77328 C-0.116727273,3.38661333 0.265090909,3.91994667 0.892363636,3.91994667" id="Fill-3" fill="#666666" mask="url(#mask-2)"></path>
            </g>
            <g id="Group-8" transform="translate(14.000000, 0.000000)">
                <mask id="mask-4" fill="white">
                    <use xlink:href="#path-3"></use>
                </mask>
                <g id="Clip-7"></g>
                <path d="M1.05591818,3.91994667 C1.71046364,3.91994667 2.36500909,3.41328 2.52864545,2.77328 L2.91046364,1.35994667 C3.0741,0.719946667 2.69228182,0.21328 2.06500909,0.21328 C1.41046364,0.21328 0.755918182,0.719946667 0.592281818,1.35994667 L0.183190909,2.77328 C0.0195545455,3.38661333 0.401645455,3.91994667 1.05591818,3.91994667" id="Fill-6" fill="#666666" mask="url(#mask-4)"></path>
            </g>
            <path d="M11.8118748,8.22920719 L9.7138922,10.5233589 L9.33591136,9.81947146 C9.09041281,9.37628306 8.6368358,9.27200343 8.29646406,9.61091221 C7.97536934,9.94982099 7.89977317,10.5754987 8.14546071,11.044757 L8.97701856,12.5828815 C9.09041281,12.8175107 9.27940322,12.9478602 9.46839364,13 L9.56288885,13 C9.73298023,13 9.88417256,12.9217903 10.0164659,12.7914408 L12.7190288,9.84554136 C13.0403125,9.50663259 13.0970097,8.85488493 12.8322341,8.41169653 C12.5867355,7.94243822 12.1329696,7.8642285 11.8118748,8.22920719" id="Fill-9" fill="#666666"></path>
        </g>
    </g>
</svg>