<?xml version="1.0" encoding="utf-8"?>
<!-- Generator: Adobe Illustrator 23.0.3, SVG Export Plug-In . SVG Version: 6.00 Build 0)  -->
<svg version="1.1" id="Layer_1" xmlns="http://www.w3.org/2000/svg" xmlns:xlink="http://www.w3.org/1999/xlink" x="0px" y="0px"
	 viewBox="0 0 35 35" style="enable-background:new 0 0 35 35;" xml:space="preserve">
<style type="text/css">
	.st0{fill:none;}
	.st1{fill-rule:evenodd;clip-rule:evenodd;fill:#2774AE;}
</style>
<title>search</title>
<desc>Created with Sketch.</desc>
<g>
	<g id="Icons" transform="translate(-215.000000, -322.000000)">
		<g id="Denotive-Icons" transform="translate(95.000000, 176.000000)">
			<g transform="translate(114.000000, 140.000000)">
				<polygon id="Path" class="st0" points="0,0 48,0 48,48 0,48 				"/>
				<path id="Shape" class="st1" d="M31,28h-1.6l-0.6-0.5c2-2.3,3.1-5.2,3.1-8.5c0-7.2-5.8-13-13-13S6,11.8,6,19s5.8,13,13,13
					c3.2,0,6.2-1.2,8.5-3.1l0.5,0.6V31l10,10l3-3L31,28z M19,28c-5,0-9-4-9-9s4-9,9-9s9,4,9,9S24,28,19,28z"/>
			</g>
		</g>
	</g>
</g>
</svg>
