<?xml version="1.0" encoding="UTF-8"?>
<svg width="24px" height="24px" viewBox="0 0 24 24" version="1.1" xmlns="http://www.w3.org/2000/svg" xmlns:xlink="http://www.w3.org/1999/xlink">
    <!-- Generator: Sketch 56.2 (81672) - https://sketch.com -->
    <title>Icon/Social/Snapchat/Color</title>
    <desc>Created with Sketch.</desc>
    <g id="Icon/Social/Snapchat/Color" stroke="none" stroke-width="1" fill="none" fill-rule="evenodd">
        <g id="Group" transform="translate(4.000000, 4.000000)">
            <path d="M8.09891321,14.9277736 C8.05846038,14.9277736 8.01891321,14.926717 7.97921509,14.9247547 C7.9538566,14.926717 7.92744151,14.9277736 7.90087547,14.9277736 C6.97272453,14.9277736 6.37695094,14.5051321 5.8008,14.0962264 C5.40306415,13.8141132 5.02766792,13.5476981 4.58540377,13.4738868 C4.36955472,13.4381132 4.15476226,13.4198491 3.94706415,13.4198491 C3.57317736,13.4198491 3.27823396,13.4778113 3.06268679,13.5200755 C2.93181887,13.5457358 2.81891321,13.5677736 2.73302642,13.5677736 C2.64336604,13.5677736 2.54615849,13.5483019 2.50404528,13.4035472 C2.46721509,13.2781132 2.4408,13.1567547 2.41529057,13.0390189 C2.34947925,12.7365283 2.30268679,12.550566 2.17649811,12.5310943 C0.704196226,12.302717 0.282913208,11.9916226 0.188875472,11.7707925 C0.175592453,11.7392453 0.168045283,11.7075472 0.166233962,11.6761509 C0.161554717,11.5913208 0.221328302,11.5164528 0.3048,11.5028679 C2.56789434,11.1286792 3.58283774,8.80701887 3.62495094,8.70845283 C3.62615849,8.70573585 3.62736604,8.70316981 3.62857358,8.70030189 C3.76713962,8.41864151 3.79415849,8.17411321 3.70947925,7.97366038 C3.55430943,7.60626415 3.04759245,7.44475472 2.71234717,7.33803774 C2.63038491,7.31192453 2.55249811,7.28732075 2.49121509,7.26301887 C1.82223396,6.99750943 1.76638491,6.72490566 1.7928,6.58603774 C1.83763019,6.34950943 2.15264906,6.1845283 2.40744151,6.1845283 C2.4773283,6.1845283 2.53891321,6.19690566 2.59068679,6.22120755 C2.89166792,6.36279245 3.16291321,6.43433962 3.39702642,6.43433962 C3.72034717,6.43433962 3.86147925,6.29803774 3.87868679,6.28007547 C3.87053585,6.12641509 3.8602717,5.96581132 3.85000755,5.80007547 C3.78238491,4.72611321 3.69906415,3.39177358 4.03747925,2.62996226 C5.05196981,0.346792453 7.20336604,0.169433962 7.83853585,0.169433962 C7.85498868,0.169433962 8.11717736,0.166566038 8.11717736,0.166566038 L8.15476226,0.166415094 C8.79144151,0.166415094 10.947517,0.344226415 11.9627623,2.62875472 C12.3013283,3.39071698 12.2174038,4.72641509 12.150083,5.7994717 L12.1472151,5.84611321 C12.1378566,5.99554717 12.1288,6.14075472 12.1212528,6.27992453 C12.1374038,6.29637736 12.2672151,6.42181132 12.5604981,6.43328302 L12.5608,6.43328302 C12.7835925,6.42467925 13.0395925,6.35328302 13.3206491,6.22120755 C13.4030642,6.18256604 13.4945358,6.17456604 13.5567245,6.17456604 C13.6518189,6.17456604 13.7482717,6.19298113 13.8282717,6.22649057 L13.8331019,6.22845283 C14.0604226,6.30920755 14.2092528,6.46920755 14.2125736,6.63630189 C14.2154415,6.79358491 14.0957434,7.03026415 13.5088755,7.26301887 C13.4480453,7.28701887 13.3701585,7.31177358 13.2877434,7.33803774 C12.9520453,7.44490566 12.4457811,7.60626415 12.2906113,7.97350943 C12.2057811,8.17396226 12.2329509,8.41833962 12.371517,8.70015094 C12.3725736,8.70301887 12.3739321,8.70558491 12.3751396,8.70845283 C12.4171019,8.80686792 13.4311396,11.1279245 15.6952906,11.502566 C15.7789132,11.5163019 15.8385358,11.5911698 15.8340075,11.676 C15.8320453,11.7078491 15.8244981,11.74 15.8109132,11.7710943 C15.7174792,11.9902642 15.2964981,12.3012075 13.8237434,12.5295849 C13.7034415,12.5481509 13.6568,12.705434 13.5851019,13.0355472 C13.5588377,13.1555472 13.5324226,13.273434 13.4960453,13.3975094 C13.4646491,13.5051321 13.3977811,13.5555472 13.2853283,13.5555472 L13.2670642,13.5555472 C13.1891774,13.5555472 13.078083,13.5415094 12.9375547,13.5138868 C12.6881962,13.4649811 12.4088,13.4198491 12.0530264,13.4198491 C11.8453283,13.4198491 11.6303849,13.4381132 11.4143849,13.4738868 C10.9725736,13.5476981 10.5974792,13.8136604 10.2004981,14.0953208 C9.62329057,14.5051321 9.02736604,14.9277736 8.09891321,14.9277736" id="Fill-1" fill="#FFFFFF"></path>
            <path d="M8.15477736,0 L8.15402264,0 C8.14028679,0 8.12730566,0 8.1149283,0.000301886792 C8.1149283,0.000301886792 7.85847547,0.00286792453 7.83809811,0.00286792453 C7.17817358,0.00286792453 4.94119245,0.187320755 3.88594717,2.56241509 C3.5309283,3.36135849 3.61606038,4.71833962 3.68428679,5.80860377 C3.69243774,5.93735849 3.70089057,6.07079245 3.70813585,6.19969811 C3.65364528,6.23003774 3.5538717,6.26777358 3.39689057,6.26777358 C3.18738113,6.26777358 2.93983396,6.20150943 2.66104151,6.07033962 C2.58707925,6.0354717 2.50179623,6.01811321 2.4074566,6.01811321 C2.08111698,6.01811321 1.69062642,6.23381132 1.62979623,6.55501887 C1.5858717,6.78641509 1.68911698,7.12392453 2.43024906,7.41781132 C2.49711698,7.44422642 2.57741887,7.46973585 2.66224906,7.49675472 C2.96851321,7.59441509 3.43130566,7.74173585 3.55673962,8.03864151 C3.62194717,8.19245283 3.59598491,8.39049057 3.47975849,8.62686792 C3.4773434,8.63215094 3.47477736,8.63758491 3.47236226,8.64301887 C3.43175849,8.73826415 2.45228679,10.9790189 0.27794717,11.3384151 C0.110701887,11.3661887 -0.00869433962,11.5157736 0.000513207547,11.6855849 C0.00338113208,11.7361509 0.0153056604,11.7864151 0.0358339623,11.8351698 C0.199003774,12.2181132 0.887607547,12.4988679 2.14104151,12.6940377 C2.18300377,12.7509434 2.22647547,12.9518491 2.25304151,13.0741132 C2.27930566,13.1950189 2.30632453,13.3193962 2.34481509,13.4508679 C2.38255094,13.5800755 2.48081509,13.7343396 2.73304151,13.7343396 C2.8349283,13.7343396 2.95523019,13.7109434 3.0944,13.6833208 C3.30315472,13.6424151 3.58919245,13.5864151 3.94707925,13.5864151 C4.14556981,13.5864151 4.3514566,13.6037736 4.55870189,13.6381887 C4.9629283,13.7058113 5.30677736,13.9497358 5.70466415,14.232 C6.27462642,14.6365283 6.91990943,15.0943396 7.90089057,15.0943396 C7.92790943,15.0943396 7.95507925,15.093434 7.98179623,15.0914717 C8.01364528,15.0928302 8.05500377,15.0943396 8.0989283,15.0943396 C9.08036226,15.0943396 9.72549434,14.6363774 10.2951547,14.2321509 C10.6937962,13.949434 11.0373434,13.7056604 11.4417208,13.6381887 C11.6485132,13.6037736 11.8544,13.5864151 12.0530415,13.5864151 C12.3946264,13.5864151 12.6648151,13.6300377 12.9058717,13.6771321 C13.0568151,13.7070189 13.1783245,13.7219623 13.2670792,13.7219623 L13.2764377,13.7221132 L13.2853434,13.7221132 C13.4717585,13.7221132 13.6032302,13.6233962 13.6553057,13.4439245 C13.6930415,13.3153208 13.7202113,13.1939623 13.7470792,13.0712453 C13.7736453,12.9489811 13.816966,12.7491321 13.8586264,12.6925283 C15.1125132,12.4972075 15.8008151,12.2170566 15.963683,11.8356226 C15.9846642,11.7868679 15.9965887,11.7363019 15.9994566,11.685283 C16.008966,11.5153208 15.8892679,11.3658868 15.7223245,11.3382642 C13.5469283,10.9782642 12.5682113,8.73796226 12.5276075,8.64286792 C12.5253434,8.63743396 12.5227774,8.632 12.5202113,8.62656604 C12.4039849,8.39033962 12.3781736,8.19245283 12.4432302,8.03864151 C12.5686642,7.74173585 13.0314566,7.59441509 13.3374189,7.49690566 C13.4231547,7.46958491 13.5037585,7.44392453 13.5698717,7.41781132 C14.1122113,7.20271698 14.3843623,6.93871698 14.3784755,6.63290566 C14.3737962,6.39290566 14.1875321,6.17871698 13.8913811,6.07245283 L13.8904755,6.07230189 C13.7908528,6.03064151 13.6726642,6.008 13.5567396,6.008 C13.4776453,6.008 13.3600604,6.01886792 13.2504755,6.07033962 C12.9925132,6.19169811 12.7606642,6.25766038 12.5606642,6.26671698 C12.4282868,6.2605283 12.3414943,6.22686792 12.2919849,6.19954717 C12.2983245,6.08890566 12.3054189,5.9749434 12.3128151,5.856 L12.3155321,5.80966038 C12.3843623,4.71849057 12.4693434,3.36045283 12.1140226,2.56075472 C11.0583245,0.18490566 8.81666415,0 8.15477736,0 M8.15477736,0.332981132 C8.7573434,0.332981132 10.833117,0.495245283 11.8112302,2.69645283 C12.1331925,3.42113208 12.0509283,4.73403774 11.9846642,5.78913208 C11.9740981,5.95622642 11.963834,6.11833962 11.955683,6.27350943 L11.9519094,6.33992453 L11.9964377,6.38943396 C12.0140981,6.40950943 12.1817962,6.5850566 12.5540226,6.59969811 L12.5602113,6.59984906 L12.5664,6.59969811 C12.8122868,6.59033962 13.0897208,6.51366038 13.3910038,6.37192453 C13.4352302,6.35109434 13.4944,6.34098113 13.5567396,6.34098113 C13.6281358,6.34098113 13.7036075,6.35441509 13.7659472,6.38067925 L13.7753057,6.38460377 C13.9331925,6.44 14.0448906,6.54490566 14.0467019,6.63954717 C14.0476075,6.69343396 14.0076075,6.88618868 13.4477585,7.10807547 C13.393117,7.12981132 13.321117,7.15275472 13.2376453,7.17932075 C12.8734189,7.29539623 12.3230792,7.47049057 12.1378717,7.90837736 C12.0334189,8.1554717 12.0619472,8.44664151 12.2225509,8.77388679 C12.2888151,8.92875472 13.3282113,11.2798491 15.6682868,11.6668679 C15.6675321,11.6775849 15.664966,11.6899623 15.6586264,11.7044528 C15.6189283,11.7981887 15.3667019,12.1219623 13.7985509,12.3648302 C13.552966,12.4028679 13.4925887,12.6787925 13.4228528,13 C13.3979472,13.1148679 13.3721358,13.2306415 13.336966,13.3506415 C13.3264,13.3868679 13.3242868,13.3889811 13.2853434,13.3889811 L13.2670792,13.3889811 C13.1974943,13.3889811 13.091834,13.3744906 12.9692679,13.3504906 C12.7470792,13.3068679 12.4421736,13.253434 12.0530415,13.253434 C11.835834,13.253434 11.611834,13.2724528 11.3873811,13.3097358 C10.9073811,13.3898868 10.5168906,13.6671698 10.1034566,13.9603019 C9.54828679,14.3544151 8.97470189,14.7613585 8.0989283,14.7613585 C8.06104151,14.7613585 8.02360755,14.7601509 7.98617358,14.7583396 L7.97621132,14.7578868 L7.96624906,14.7587925 C7.94466415,14.7606038 7.92323019,14.7613585 7.90089057,14.7613585 C7.02556981,14.7613585 6.45153208,14.3544151 5.89651321,13.9604528 C5.48323019,13.6671698 5.09258868,13.3898868 4.61273962,13.3097358 C4.38828679,13.2724528 4.16428679,13.253434 3.94707925,13.253434 C3.55809811,13.253434 3.25319245,13.3129057 3.03070189,13.3565283 C2.90828679,13.3806792 2.80247547,13.4013585 2.73304151,13.4013585 C2.67628679,13.4013585 2.67507925,13.3980377 2.66315472,13.3568302 C2.62798491,13.2368302 2.60217358,13.1178868 2.57726792,13.0031698 C2.50738113,12.6821132 2.44700377,12.4045283 2.20172075,12.3664906 C0.633116981,12.1233208 0.381192453,11.7987925 0.341343396,11.7053585 C0.335003774,11.690717 0.332437736,11.6780377 0.331833962,11.6670189 C2.67175849,11.2801509 3.71130566,8.92935849 3.77741887,8.77403774 C3.93802264,8.44664151 3.96670189,8.15562264 3.86224906,7.90867925 C3.67719245,7.47064151 3.12670189,7.29539623 2.76232453,7.17932075 C2.67900377,7.15290566 2.60685283,7.12981132 2.55221132,7.10807547 C2.07930566,6.92060377 1.93394717,6.73177358 1.95583396,6.61735849 C1.98089057,6.48528302 2.20866415,6.35109434 2.4074566,6.35109434 C2.45228679,6.35109434 2.49138113,6.35833962 2.52036226,6.37192453 C2.84338113,6.52377358 3.13847547,6.60090566 3.39689057,6.60090566 C3.80368302,6.60090566 3.98481509,6.41101887 4.00398491,6.38943396 L4.04806038,6.33992453 L4.04458868,6.27366038 C4.03613585,6.1189434 4.02602264,5.95683019 4.0154566,5.78958491 C3.9493434,4.73479245 3.86707925,3.42264151 4.18904151,2.69781132 C5.16338113,0.50490566 7.22873962,0.335849057 7.83855094,0.335849057 C7.85364528,0.335849057 8.11870189,0.333132075 8.11870189,0.333132075 C8.13017358,0.332981132 8.14194717,0.332981132 8.15477736,0.332981132" id="Fill-3" fill="#030303"></path>
        </g>
    </g>
</svg>