<?xml version="1.0" encoding="utf-8"?>
<!-- Generator: Adobe Illustrator 23.0.4, SVG Export Plug-In . SVG Version: 6.00 Build 0)  -->
<svg version="1.1" id="Layer_1" xmlns="http://www.w3.org/2000/svg" xmlns:xlink="http://www.w3.org/1999/xlink" x="0px" y="0px"
	 viewBox="0 0 24 24" style="enable-background:new 0 0 24 24;" xml:space="preserve">
<style type="text/css">
	.st0{fill-rule:evenodd;clip-rule:evenodd;fill:#007339;}
</style>
<title>Leading Icon</title>
<desc>Created with Sketch.</desc>
<g id="Symbols">
	<g transform="translate(-18.000000, -18.000000)">
		<g transform="translate(16.000000, 16.000000)">
			<g id="valid" transform="translate(2.000000, 2.000000)">
				<path id="Combined-Shape" class="st0" d="M12,2c5.5,0,10,4.5,10,10s-4.5,10-10,10S2,17.5,2,12S6.5,2,12,2z M16.2,8.1l-5.1,5.1
					l-2.3-2.3c-0.1-0.1-0.2-0.1-0.3,0L7,12.4c-0.1,0.1-0.1,0.2,0,0.3l3.9,3.9l0.1,0.1c0.1,0,0.1,0,0.1-0.1l6.7-6.7
					c0.1-0.1,0.1-0.2,0-0.3L16.2,8.1C16.4,8,16.3,8,16.2,8.1z"/>
			</g>
		</g>
	</g>
</g>
</svg>
